{"title":"Real Ex Girlfriends - Natalia Starr.wmv","uid":9206337,"size":429620250,"categoryP":"porn","categoryS":"movie_clips","magnet":"?xt=urn:btih:6fb370bae74bc1a255d7a63c4d6c0045424e5104&amp;dn=Real+Ex+Girlfriends+-+Natalia+Starr.wmv&amp;tr=udp%3A%2F%2Ftracker.openbittorrent.com%3A80&amp;tr=udp%3A%2F%2Fopen.demonii.com%3A1337&amp;tr=udp%3A%2F%2Ftracker.coppersurfer.tk%3A6969&amp;tr=udp%3A%2F%2Fexodus.desync.com%3A6969","seeders":0,"leechers":0,"uploader":null,"files":1,"time":1384704031,"description":" &lt;a href=&quot;http://bayimg.com/nACBGAafI&quot; rel=&quot;nofollow&quot; target=&quot;_NEW&quot;&gt;http://bayimg.com/nACBGAafI&lt;/a&gt;\n\nAfter a brief tour of the exterior of the house, Natalia gets around to showing off her interior.\nFormat : Windows Media\nFile size : 410 MiB\nDuration : 21mn 38s\nOverall bit rate mode : Constant\nOverall bit rate : 2 647 Kbps\nMaximum Overall bit rate : 2 651 Kbps\nEncoded date : UTC 2013-11-09 08:31:24.105\n\nVideo\nID : 2\nFormat : VC-1\nFormat profile : MP@HL\nCodec ID : WMV3\nCodec ID/Info : Windows Media Video 9\nCodec ID/Hint : WMV3\nDescription of the codec : Windows Media Video 9 - Professional\nDuration : 21mn 38s\nBit rate mode : Constant\nBit rate : 2 500 Kbps\nWidth : 1 280 pixels\nHeight : 720 pixels\nDisplay aspect ratio : 16:9\nFrame rate : 23.976 fps\nNominal frame rate : 29.970 fps\nBit depth : 8 bits\nScan type : Progressive\nCompression mode : Lossy\nBits/(Pixel*Frame) : 0.113\nStream size : 387 MiB (94%)\n\nAudio\nID : 1\nFormat : WMA\nFormat version : Version 2\nCodec ID : 161\nCodec ID/Info : Windows Media Audio\nDescription of the codec : Windows Media Audio 9.2 - 128 kbps, 44 kHz, stereo 2-pass CBR\nDuration : 21mn 38s\nBit rate mode : Constant\nBit rate : 128 Kbps\nChannel(s) : 2 channels\nSampling rate : 44.1 KHz\nBit depth : 16 bits\nStream size : 19.8 MiB (5%)","torrent":{"xt":"urn:btih:6fb370bae74bc1a255d7a63c4d6c0045424e5104","amp;dn":"Real+Ex+Girlfriends+-+Natalia+Starr.wmv","amp;tr":["udp%3A%2F%2Ftracker.openbittorrent.com%3A80","udp%3A%2F%2Fopen.demonii.com%3A1337","udp%3A%2F%2Ftracker.coppersurfer.tk%3A6969","udp%3A%2F%2Fexodus.desync.com%3A6969"],"infoHash":"6fb370bae74bc1a255d7a63c4d6c0045424e5104","infoHashBuffer":{"type":"Buffer","data":[111,179,112,186,231,75,193,162,85,215,166,60,77,108,0,69,66,78,81,4]},"announce":[],"urlList":[]}}